<svg xmlns="http://www.w3.org/2000/svg" viewBox="0 0 276.42 276.55"><defs><style>.cls-1{fill:#fff;}.cls-2{fill:#bd4052;}.cls-3{fill:none;}</style></defs><title>Fichier 5</title><g id="Calque_2" data-name="Calque 2"><g id="Calque_1-2" data-name="Calque 1"><path class="cls-1" d="M144.81,276.4c72-3.24,135-64.75,131.47-144.31C273,57.31,210.15-.21,137.64,0,60.08.22-1.55,65.6,0,137.69-1.63,212.56,62.17,280.13,144.81,276.4ZM1.92,131C5.16,59.76,65.2.32,141.52,2.12a135.92,135.92,0,0,1,132.79,137C274,214.83,211.82,274.73,137.54,274.4,62.65,274.34-1.78,212.39,1.92,131Z"/><path class="cls-1" d="M177.77,165.26l.93-.66q0-29.37,0-58.74a6.89,6.89,0,0,0-2-4.67c-3.94-4.52-7.84-9.06-11.77-13.58-1.4-1.61-2.84-3.19-4.59-5.16a12.9,12.9,0,0,0-.38,1.84q0,30.31,0,60.63a4.26,4.26,0,0,0,.85,3.17C166.45,153.83,172.12,159.54,177.77,165.26Z"/><path class="cls-1" d="M99.26,178.93q8.44-8.73,16.87-17.51a3.69,3.69,0,0,0,1.34-2.58V132.56c-6.69,7.23-12.68,13.67-18.62,20.15a3.39,3.39,0,0,0-.85,2c-.06,8.17,0,16.35,0,24.78C98.65,179.2,99,179.15,99.26,178.93Z"/><path class="cls-1" d="M127.37,55.61c-1.5,1.44.3,2.42,1.19,3.28,7.19,6.93,14.36,13.88,21.68,20.67a9.35,9.35,0,0,1,3.2,7.55c-.12,20.34,0,40.68-.16,61a10,10,0,0,0,3.36,7.91c4.81,4.54,9.4,9.31,14.11,13.94,1.55,1.52,2.71,2.85,2.22,5.46-.62,3.34,2.27,6.08,5.58,6.05a5.5,5.5,0,0,0,5.49-5.82c-.09-3.47-2.61-5.83-6.18-5.24-2.08.34-3.23-.4-4.53-1.72-4.82-4.9-9.64-9.78-14.6-14.53a7.83,7.83,0,0,1-2.64-6.24c.11-10.36,0-20.72,0-31.08h0c0-10.48,0-21,0-31.45a7.6,7.6,0,0,0-2.29-6c-7.86-7.5-15.64-15.07-23.46-22.6C129.59,55.93,128.58,54.45,127.37,55.61ZM178.5,172.93a2.79,2.79,0,0,1,3,2.71c.11,1.8-1,2.94-2.93,3.29-1.81-.31-2.93-1.32-2.9-3.22A2.58,2.58,0,0,1,178.5,172.93Z"/><path class="cls-1" d="M112.42,60c10.52,10.5,21,21,31.61,31.44a8.83,8.83,0,0,1,2.9,6.92c-.11,10.24,0,20.48,0,30.72h-.08c0,10.48,0,21,0,31.46,0,2.06.2,4,1.76,5.53q8.91,8.84,17.79,17.69c.92.92,2.06,2,3.12.77.86-1-.48-2-1.25-2.76-5.21-5.22-10.35-10.5-15.68-15.57a9.09,9.09,0,0,1-3-7.24c.12-20.47.07-40.95.12-61.42,0-2.32-.17-4.48-1.93-6.23l-35-34.94c-.7-.7-1.6-1.67-2.54-.81-1.13,1-.09,2,.66,2.85C111.34,58.93,111.89,59.45,112.42,60Z"/><path class="cls-1" d="M98.15,201.31A27.9,27.9,0,0,0,96,203.85a1.13,1.13,0,0,0,1.49,1.58,15.21,15.21,0,0,0,2-1.65q17.42-17.31,34.84-34.6a8.68,8.68,0,0,0,2.71-6.67c-.09-10.74-.22-21.49,0-32.23.17-8.83-.93-17.7,1-26.51.73-3.31-2.18-6-6.12-6-2.52.07-4.39,1.61-4.94,4.6a5.07,5.07,0,0,0,4.36,6.31c2.72.41,2.94,1.63,2.93,3.93-.07,15.86-.07,31.73.09,47.59a10.84,10.84,0,0,1-3.47,8.61C119.85,179.54,109,190.45,98.15,201.31Zm34.34-95.1c-1.76-.18-2.91-1.11-2.94-2.83a2.9,2.9,0,1,1,5.8,0C135.29,105.13,134.14,106,132.49,106.21Z"/><path class="cls-1" d="M92.56,191.13A5.31,5.31,0,0,0,98,196.2c3.55,0,6.27-2.7,5.69-6.28-.36-2.23.46-3.46,1.87-4.85,6.32-6.22,12.45-12.63,18.9-18.72a11.91,11.91,0,0,0,3.93-9.17c.34-11.56-1.17-23.18,1.28-34.69.64-3-1.06-5.32-4.33-5.95a5.44,5.44,0,0,0-6.63,4c-.75,2.94.8,6.16,3.85,6.64s3,2,3,4.3c-.11,8.62-.16,17.24,0,25.85a8.26,8.26,0,0,1-2.68,6.61c-5.93,5.71-11.73,11.58-17.51,17.45-2.13,2.17-4.08,4-7.64,3.67C94.47,184.8,92.36,187.79,92.56,191.13Zm31.62-66.31a2.74,2.74,0,0,1-3-2.76,2.79,2.79,0,0,1,3.06-3c1.72,0,2.6,1.26,2.76,3C126.86,123.72,125.9,124.84,124.18,124.82Z"/><path class="cls-2" d="M187.3,233.6a54.79,54.79,0,0,1,2.64-6.56c.76-1.58,1.47-2.91-.58-4.06-2.34-1.3-3.06.42-4,1.94-1.68,2.79-2,6.08-3.22,9.14-1.16-1.22-1.16-2.68-1.54-4-.8-2.68-2.92-3.58-4.47-1.41-2.11,2.94-5.07,4.74-7.62,7.08-1.37,1.25-2.24,2.79-1.6,4.66.8,2.36,2.71,2.68,4.88,2.24,1.72-.35,2.62-1.79,1.68-3-3-3.85,1.09-4.33,2.42-6.45a52,52,0,0,0,2.58,5.31c1.93,3,.83,5.71-.32,8.49a1.86,1.86,0,0,1-1.62,1.35,1.31,1.31,0,0,1-1.19-1.59c.23-2-1-2.42-2.51-2.27a2.79,2.79,0,0,0-2.49,2.82,4.66,4.66,0,0,0,5.9,4.85c3.73-.88,6-3.39,7.2-7.38,2.59,2.25,4.76,4.59,7.93,5.3,1.75.39,3.73.39,4.31-1.8s-.66-2.91-2.69-3.56C187,242.8,185.36,239.48,187.3,233.6Z"/><path class="cls-1" d="M79.83,229.42c2.08.64,3.06-.39,4.22-2,1.55-2.14,5-1.85,8,.4,1.81,1.33,3.31,3,1.91,5.33-1.6,2.71-4,2.86-6.77,1.59.89-2.23,3.34-2.73,4.48-4.49-2-3-4.28-3-6.77-.63-2.69,2.6-5.44,5.14-8,7.83-.78.8-2.77,1.78-.81,3.19,1.44,1,3.18,2.34,4.88.15a17.89,17.89,0,0,1,1.71-2c.59-.57,1-1.7,2-1.31s.43,1.51.36,2.27c-.18,2.11-.66,4.2-.69,6.3,0,2.26.82,4.63,3.43,4.37,2.77-.27,2.84-2.35,2-4.8a6.45,6.45,0,0,1,.33-5.45c.86-1.38,2.76-.33,4.19-.53,4.12-.57,6.74-4.24,5.62-8-1.79-6-12.78-11.45-18.58-9.16a5,5,0,0,0-3.44,4.1A2.51,2.51,0,0,0,79.83,229.42Z"/><path class="cls-1" d="M140.9,173a8.86,8.86,0,0,0,2.78-7c-.12-10.48-.05-21,0-31.44q0-16.47,0-32.94c0-1.09.82-2.84-1.19-2.91-2.24-.08-1.53,1.78-1.54,3,0,21-.13,41.92,0,62.88a10.08,10.08,0,0,1-3.34,7.89c-6.91,6.67-13.65,13.52-20.45,20.31-.7.7-1.78,1.61-1.08,2.51.84,1.07,2,.18,2.91-.43a9.73,9.73,0,0,0,1.35-1.3C127.11,186.69,133.94,179.75,140.9,173Z"/><path class="cls-1" d="M144.68,253.52c-.72.63-1.42,1.68-2.51,1.09s-.44-1.81-.21-2.69c1-3.83,2.14-7.63,3.22-11.44.33-1.15,1.41-2.47.23-3.42s-2.84-.82-4.33-.57c-1.85.32-1.6,2.15-1.84,3.28-.61,2.92-1.78,4.57-5.07,5.1a9.36,9.36,0,0,0-8,8.59c-.19,3.66,2.29,5.74,5.73,4.5,2.25-.81,4.31-3.28,6.36.3.19.33,1.45.2,2.16.06a9.26,9.26,0,0,0,6.86-5.7C145.61,252,145.29,253,144.68,253.52Zm-10.42.41c-.39.56-1.08,1-1.57.57a2,2,0,0,1-.33-1.71,6.11,6.11,0,0,1,4.06-4.85A10.2,10.2,0,0,1,134.26,253.93Z"/><path class="cls-1" d="M109,249.65a26,26,0,0,0,3,.43c2.58,0,4.77-.74,5.33-3.59s-1.43-4.33-3.85-5.1a8.1,8.1,0,0,0-10.26,5.09c-1.16,3.9,1.28,7,6.42,8.31a9.5,9.5,0,0,0,4.79.26c3.22-.82,4.49-1.9,4.83-4.24C113.38,253.41,111.77,253.29,109,249.65Zm1-3.67a4.34,4.34,0,0,1,1.65-1.37.63.63,0,0,1,.74.89,2.54,2.54,0,0,1-1.66,1.58C109.86,246.91,109.69,246.42,110,246Z"/><path class="cls-1" d="M241.9,95.7a1,1,0,0,0,1.47.66c1.62-.57,3.2-1.23,5.55-2.14-1.76,2.64-3,4.51-4.25,6.34a1.35,1.35,0,0,0-.11,1.67c.4.66.77.72,1.48.41,2.5-1.07,5-2.07,7.58-3.06.49-.2,1-.39.78-1a1.07,1.07,0,0,0-1.4-.81c-1.67.34-3,1.66-5.26,1.52,1.36-2,2.58-3.79,3.77-5.6a1.82,1.82,0,0,0,0-2.1c-.39-.61-.88-.3-1.31-.13-2.53,1-5.06,2-7.57,3.08A1,1,0,0,0,241.9,95.7Z"/><path class="cls-1" d="M219.79,59.61c.56-.31.79-1.41,1.69-.87,1.12.68.23,1.54.05,2.3-.31,1.32-1.66,2.72.41,3.77,1.54-.86.53-3.68,2.71-3.85s3.45-1,3.59-2.94c.17-2.39-1.7-4-3.44-4.94s-2.3,1.3-3.39,2.13a20.76,20.76,0,0,0-2.94,2.84c-.56.64-2.09,1.09-1,2.3S219.05,60,219.79,59.61Zm4.81-4.23c1.12.08,1.41,1.17,1.65,1.92-.07,1.27-.62,1.82-1.67,1.68s-2.06-.94-2-1.81A2.1,2.1,0,0,1,224.6,55.38Z"/><path class="cls-1" d="M55.9,61.53a5.19,5.19,0,0,0,5.29-5.08A5.79,5.79,0,0,0,56,50.71,5.4,5.4,0,0,0,50.5,56,5.72,5.72,0,0,0,55.9,61.53Zm-.41-8.86c2.28.09,3.44,1.71,4,3.8-.37,1.75-1.24,3.16-3.11,3.18a3.83,3.83,0,0,1-4-4A2.89,2.89,0,0,1,55.49,52.67Z"/><path class="cls-1" d="M236.83,81.74a5.58,5.58,0,0,0,5.79-5.46A5.45,5.45,0,0,0,237.47,71a5.81,5.81,0,0,0-5.59,5.36A5.16,5.16,0,0,0,236.83,81.74Zm.53-8.63a2.88,2.88,0,0,1,3.47,3c0,2.33-1.82,3.33-3.88,3.86-2.07-.2-3.37-1.39-3.29-3.35C233.74,74.5,235.27,73.34,237.36,73.11Z"/><path class="cls-1" d="M22.65,109.56c-3.07-.11-5.2,2.09-5.58,6.19-.29,3,2.57,1.67,3.9,2.45a7.51,7.51,0,0,0,2.13.63c3.89.91,5-.07,4.95-4.29C28,111.66,25.86,109.68,22.65,109.56Zm3.54,5.91c-.2,1-.31,2.46-2.73,1-.86-.71-4.25,1.09-4.21-2.29a2.8,2.8,0,0,1,3.64-2.69C25,112,26.71,112.87,26.19,115.47Z"/><path class="cls-1" d="M24.18,157.89c-.68-.1-1.64.46-2-.45-.4-1.1.73-1.38,1.39-1.88a11.75,11.75,0,0,0,1.77-1.34,1.57,1.57,0,0,0,.15-1.33.74.74,0,0,0-1.24-.17c-1.68,1.66-3.27,1.05-5.28.44s-3.67,1.08-3.5,3.21c.12,1.59-.65,4.08,1.31,4.47,3.14-.39,5.37-.6,7.57-1,.72-.13,2.07.06,1.92-1.21S25,158,24.18,157.89Zm-5.28.77c-1.47.19-1.71-.78-1.69-1.8s.44-2,1.76-1.86a1.78,1.78,0,0,1,1.53,1.69C20.65,158.43,19.84,158.54,18.9,158.66Z"/><path class="cls-1" d="M43.58,78.76c1.26-1.33-.45-1.8-1.22-2.45-.46-.39-1.11-.7-.82-1.44.38-1,1.16-.59,1.9-.47,1.37.22,2.93,1.08,3.8-.77-.74-2-3.84.19-4.31-2.58a3,3,0,0,0-3.55-2.54c-2.36.28-3.19,2.35-4.07,4-1,1.82,1.33,1.93,2.16,2.74a20.65,20.65,0,0,0,3.67,2.54C41.91,78.27,42.69,79.69,43.58,78.76Zm-2.42-6.59a2.93,2.93,0,0,1-1.55,2.21c-.83-.73-2.18-.87-2-2a2.06,2.06,0,0,1,2.22-2A1.49,1.49,0,0,1,41.16,72.17Z"/><path class="cls-1" d="M186.09,38.81c2,1,3.92,1.13,5.44-1-1-1-2-.48-2.89-.44-2.6.13-3.65-1.19-3.17-3.71.3-1.56,1.05-2.87,2.75-3.13a2.69,2.69,0,0,1,3.31,2.21,1.35,1.35,0,0,0,1.61,1.16c.75-.15.65-1,.5-1.54a5,5,0,0,0-4.92-3.84c-2.86-.13-4.55,1.85-5.27,4.41A4.68,4.68,0,0,0,186.09,38.81Z"/><path class="cls-1" d="M258.68,153.66c-1.77-.4-2.65.81-3.45,2.18-.61,1-1,3.14-2.81,1.87-1.34-1-.44-2.12.84-2.82a1.17,1.17,0,0,0,.38-1.86c-.67-.75-1.37,0-1.89.41a4.19,4.19,0,0,0-1.58,4.31,2.89,2.89,0,0,0,2.43,2.49c2,.32,2.86-1,3.71-2.44.52-.88,1-2.63,2.26-1.85s.53,2.07-.67,2.89a1.11,1.11,0,0,0-.08,1.66c.54.61,1.12,0,1.59-.3,1.22-.68,1.4-2,1.69-3.17C260.94,155.43,260.37,154.05,258.68,153.66Z"/><path class="cls-1" d="M251.57,132.84c-1.29,2.69-.13,5.38,2.89,6.64.56-1.15-.21-1.75-.84-2.56-1-1.3-1.09-2.89.28-4a4,4,0,0,1,5.15-.1c1.38,1.08,1.33,2.62.34,4-.57.79-1.67,1.57-.33,2.27,1,.52,1.74-.59,2.27-1.46a5,5,0,0,0-2-7C256.59,129.23,252.78,130.31,251.57,132.84Z"/><path class="cls-1" d="M131.42,27.56a4.32,4.32,0,0,0-3.53-.71c-1,0-2,.25-2.18-1.25s1-1.38,1.92-1.67,2.07.41,2.4-1C129,21,125.8,24,125.62,21.3c-.2-2.87,3.42-.76,4.72-3.11-2.71-.53-6.13-.74-6.79,1.07a11.46,11.46,0,0,0,1.09,9.26C125.45,29.83,128.87,28.58,131.42,27.56Z"/><path class="cls-1" d="M73.08,43.14c1.14-.16,2.71-1.21,3,.75s-1.36,1.64-2.64,1.48c-.74-.1-1.66-.2-1.68.83s1,1.13,1.63,1.25a4.42,4.42,0,0,0,4.22-1.82,2.73,2.73,0,0,0,.47-3.13c-.79-1.66-2.23-1.79-3.82-1.56-.49.08-1,.13-1.48.19-.86.22-1.93.48-2-.8s.83-1.76,2-1.29c.92.35,1.54,0,1.66-.82.15-1.06-.86-1-1.55-1.1A3.87,3.87,0,0,0,69.11,39,2.55,2.55,0,0,0,69,42.06C70.07,43.64,71.6,43.35,73.08,43.14Z"/><path class="cls-1" d="M24.8,138.8c.21-2.13.95-4.35-.35-6.47-2.11,1.2.82,4.66-2.43,4.7s-.14-3.55-2.12-4.4c-2.18.73.9,4.69-2.52,4.21-2.88-.41,0-3.56-2.29-5.17-.49,2.71-1.35,5,.28,7.19C15.86,139.51,24.75,139.27,24.8,138.8Z"/><path class="cls-1" d="M168.53,32.11c.47,0,1,.28,1.22-.36a.84.84,0,0,0-.58-1.16c-1.3-.46-3.68.05-3.35-2.1.51-3.23,3.07.07,4.43-1a3,3,0,0,0,.26-.31c-.1-1.75-1.67-1.08-2.55-1.47s-1.38-1-1.06-2,1.12-.82,1.84-.7,1.2.34,1.8.5,1.28.42,1.5-.45-.6-.92-1.12-1.16c-4.54-2.11-5.17-1.79-6.39,3.13-.12.49-.27,1-.4,1.44C162.93,31,163.73,32,168.53,32.11Z"/><path class="cls-1" d="M91.17,32.91c1.27,0,3.3-.54,3,1.54s-2,1.21-3.26.64a1.4,1.4,0,0,0-1.24.45c-.32.42,0,.94.43,1.24a4.15,4.15,0,0,0,4.57,0,3,3,0,0,0,1.67-3.41c-.29-1.61-1.39-2.1-2.93-2.27-1.32-.15-3.74,1-3.73-1.07,0-2.67,2.69-.19,3.85-1.18a3.6,3.6,0,0,0,.33-.5,2.9,2.9,0,0,0-4.28-1.08C88.14,28,87,29,87.38,30.75,87.81,32.75,89.43,33,91.17,32.91Z"/><path class="cls-1" d="M34.13,89.67c-1,.2-1,1-.6,1.77a2.68,2.68,0,0,1-1.8,4.1,3.83,3.83,0,0,1-4.67-2.22c-1-2,.08-3.24,2.06-3.9.57-.19,1.05-.66,1.11-1.78-2.69-.83-4.11.74-4.93,2.8A4.59,4.59,0,0,0,27,96.38c2.07,1.36,4.34,2,6.58.33a5.12,5.12,0,0,0,1.92-5.65C35.38,90.39,35.06,89.48,34.13,89.67Z"/><path class="cls-1" d="M204.26,49c1.69,1.17,2.1-2,3.36-2.93s1.42-4.62,4.49-2.22c.16.13.74,0,.93-.23.42-.44.19-.89-.27-1.21l-5.7-4-1,.46C208.89,41.25,207.3,43,206,45,205.16,46.23,202.67,47.89,204.26,49Z"/><path class="cls-1" d="M145.55,28.23c1.57.14,3.15.18,4.73.26.34-.35.68-.71,1-1.06-7,.14-4.72-4.16-4.73-7.38a6.75,6.75,0,0,0,0-1.49c-.25-1-.93-1-1.61-.42-.47.4-1.12,9.14-.69,9.57A2.15,2.15,0,0,0,145.55,28.23Z"/><path class="cls-1" d="M248.59,116.7c.08.91.82.85,1.39.74,2.68-.53,5.35-1.11,8-1.72.63-.15,1.16-.58.9-1.35a1.07,1.07,0,0,0-1.25-.66c-2.84.62-5.39,1.15-7.93,1.74C249.09,115.59,248.52,115.92,248.59,116.7Z"/><path class="cls-3" d="M132.36,252.79a2,2,0,0,0,.33,1.71c.49.39,1.18,0,1.57-.57a10.2,10.2,0,0,0,2.16-6A6.11,6.11,0,0,0,132.36,252.79Z"/><path class="cls-3" d="M110.77,247.08a2.54,2.54,0,0,0,1.66-1.58.63.63,0,0,0-.74-.89A4.34,4.34,0,0,0,110,246C109.69,246.42,109.86,246.91,110.77,247.08Z"/></g></g></svg>