<svg xmlns="http://www.w3.org/2000/svg" viewBox="0 0 113.6 113.65"><defs><style>.cls-1{fill:#231f20;}.cls-1,.cls-2,.cls-3{stroke:#231f20;stroke-miterlimit:10;stroke-width:0.25px;}.cls-2{fill:#ed1c2c;}.cls-3{fill:#fff;}</style></defs><title>Fichier 7</title><g id="Calque_2" data-name="Calque 2"><g id="Calque_1-2" data-name="Calque 1"><path class="cls-1" d="M59.51,113.47c29.53-1.33,55.35-26.56,53.91-59.18C112.06,23.63,86.3,0,56.57.13,24.76.22-.51,27,.14,56.58-.54,87.29,25.62,115,59.51,113.47ZM.91,53.83a55.89,55.89,0,1,1,55.61,58.82A55.73,55.73,0,0,1,.91,53.83Z"/><path class="cls-1" d="M73,67.89l.38-.27q0-12,0-24.09a2.81,2.81,0,0,0-.82-1.91c-1.62-1.85-3.22-3.72-4.83-5.57-.57-.66-1.16-1.31-1.88-2.12a6.39,6.39,0,0,0-.16.76V59.55a1.75,1.75,0,0,0,.35,1.3Q69.54,64.39,73,67.89Z"/><path class="cls-1" d="M40.83,73.5l6.92-7.18a1.56,1.56,0,0,0,.55-1.06c0-3.45,0-6.9,0-10.78-2.74,3-5.19,5.61-7.63,8.27a1.35,1.35,0,0,0-.35.82c0,3.35,0,6.7,0,10.16C40.58,73.61,40.74,73.59,40.83,73.5Z"/><path class="cls-1" d="M52.36,22.93c-.62.59.12,1,.48,1.34,2.95,2.84,5.89,5.69,8.89,8.48a3.83,3.83,0,0,1,1.32,3.09c0,8.35,0,16.69-.07,25a4.06,4.06,0,0,0,1.38,3.24c2,1.86,3.85,3.82,5.78,5.72a2.22,2.22,0,0,1,.91,2.24,2.19,2.19,0,0,0,2.29,2.48,2.26,2.26,0,0,0,2.25-2.39A2.09,2.09,0,0,0,73.06,70a1.88,1.88,0,0,1-1.86-.71c-2-2-4-4-6-5.95a3.23,3.23,0,0,1-1.08-2.56c.05-4.25,0-8.5,0-12.74h0c0-4.3,0-8.6,0-12.9a3.16,3.16,0,0,0-.94-2.48c-3.22-3.08-6.41-6.18-9.62-9.27C53.27,23.06,52.85,22.45,52.36,22.93ZM73.32,71a1.13,1.13,0,0,1,1.23,1.11,1.25,1.25,0,0,1-1.2,1.34,1.23,1.23,0,0,1-1.19-1.31A1.05,1.05,0,0,1,73.32,71Z"/><path class="cls-1" d="M46.22,24.72c4.32,4.3,8.62,8.62,13,12.89a3.62,3.62,0,0,1,1.18,2.84c0,4.2,0,8.39,0,12.59h0q0,6.45,0,12.9A2.92,2.92,0,0,0,61,68.21c2.44,2.42,4.87,4.83,7.3,7.26.38.37.84.83,1.28.31s-.2-.82-.52-1.13c-2.13-2.14-4.24-4.3-6.43-6.39a3.75,3.75,0,0,1-1.24-3c0-8.4,0-16.8,0-25.19a3.27,3.27,0,0,0-.79-2.55L46.35,23.23c-.29-.29-.66-.69-1-.33s0,.82.27,1.16S46,24.5,46.22,24.72Z"/><path class="cls-1" d="M40.37,82.67a12.66,12.66,0,0,0-.89,1,.46.46,0,0,0,.6.64,5.94,5.94,0,0,0,.83-.67C45.67,79,50.42,74.21,55.19,69.5a3.54,3.54,0,0,0,1.12-2.74c0-4.4-.09-8.81,0-13.21.07-3.62-.38-7.26.4-10.87.3-1.36-.89-2.47-2.5-2.47A2.27,2.27,0,0,0,54,44.69c1.12.17,1.21.67,1.21,1.61,0,6.51,0,13,0,19.52a4.48,4.48,0,0,1-1.43,3.53C49.27,73.75,44.83,78.22,40.37,82.67Zm14.08-39c-.72-.08-1.19-.46-1.2-1.16a1.19,1.19,0,1,1,2.38,0A1.19,1.19,0,0,1,54.45,43.68Z"/><path class="cls-1" d="M38.08,78.5a2.18,2.18,0,0,0,2.21,2.08A2.22,2.22,0,0,0,42.63,78a2,2,0,0,1,.76-2c2.6-2.55,5.11-5.18,7.75-7.67a4.91,4.91,0,0,0,1.62-3.76c.13-4.74-.48-9.51.52-14.23a2,2,0,0,0-1.78-2.44,2.23,2.23,0,0,0-2.71,1.65,2.11,2.11,0,0,0,1.58,2.72c1.21.19,1.25.82,1.24,1.77,0,3.53-.07,7.07,0,10.6a3.39,3.39,0,0,1-1.1,2.71c-2.43,2.34-4.81,4.75-7.18,7.16-.88.88-1.68,1.63-3.13,1.5A2.12,2.12,0,0,0,38.08,78.5Zm13-27.19a1.13,1.13,0,0,1-1.22-1.13,1.14,1.14,0,0,1,1.26-1.25c.7,0,1.06.52,1.13,1.22A1.13,1.13,0,0,1,51.05,51.31Z"/><path class="cls-2" d="M76.93,95.91A22.21,22.21,0,0,1,78,93.22c.31-.64.61-1.19-.24-1.66s-1.25.17-1.63.79a24.84,24.84,0,0,0-1.32,3.75,3.35,3.35,0,0,1-.63-1.62c-.33-1.1-1.2-1.47-1.83-.58a20.39,20.39,0,0,1-3.13,2.9,1.75,1.75,0,0,0-.66,1.91c.33,1,1.12,1.1,2,.92.7-.14,1.07-.74.69-1.23-1.24-1.57.44-1.77,1-2.64a20.27,20.27,0,0,0,1.06,2.18c.79,1.21.34,2.34-.13,3.48a.77.77,0,0,1-.67.55.55.55,0,0,1-.49-.65c.1-.83-.42-1-1-.93a1.15,1.15,0,0,0-1,1.16,1.91,1.91,0,0,0,2.42,2,4,4,0,0,0,2.95-3c1.07.92,2,1.88,3.26,2.17.72.16,1.52.16,1.77-.74s-.28-1.19-1.11-1.46C76.79,99.69,76.13,98.33,76.93,95.91Z"/><path class="cls-1" d="M32.86,94.2c.85.27,1.26-.16,1.73-.81.64-.88,2-.76,3.3.17.74.54,1.36,1.21.79,2.18C38,96.86,37,96.92,35.9,96.4c.36-.92,1.37-1.12,1.83-1.85C36.91,93.33,36,93.31,35,94.3s-2.23,2.1-3.3,3.2c-.32.34-1.13.74-.33,1.31.59.43,1.31,1,2,.07a6.91,6.91,0,0,1,.7-.81c.25-.24.41-.7.84-.54s.17.62.14.93c-.07.86-.27,1.72-.28,2.58s.33,1.9,1.4,1.8,1.17-1,.81-2a2.69,2.69,0,0,1,.13-2.24c.36-.56,1.14-.13,1.72-.21a2.62,2.62,0,0,0,2.31-3.3c-.73-2.46-5.24-4.69-7.62-3.75a2.05,2.05,0,0,0-1.41,1.68A1,1,0,0,0,32.86,94.2Z"/><path class="cls-1" d="M57.9,71A3.59,3.59,0,0,0,59,68.18c0-4.29,0-8.59,0-12.89q0-6.75,0-13.51c0-.44.33-1.16-.49-1.19s-.63.73-.63,1.24c0,8.6,0,17.19,0,25.79a4.11,4.11,0,0,1-1.37,3.23c-2.83,2.74-5.59,5.55-8.38,8.33-.29.29-.73.66-.44,1s.82.07,1.19-.18a3.93,3.93,0,0,0,.55-.53C52.25,76.68,55.05,73.83,57.9,71Z"/><path class="cls-1" d="M59.45,104.08c-.29.26-.58.69-1,.45s-.18-.74-.08-1.1c.42-1.57.87-3.13,1.32-4.7.13-.47.58-1,.09-1.4A2.25,2.25,0,0,0,58,97.1c-.76.13-.66.88-.76,1.34a2.24,2.24,0,0,1-2.08,2.09,3.86,3.86,0,0,0-3.28,3.53c-.08,1.5.94,2.35,2.35,1.85.93-.34,1.77-1.35,2.61.12.08.13.59.08.89,0a3.79,3.79,0,0,0,2.81-2.33C59.83,103.44,59.7,103.86,59.45,104.08Zm-4.27.17c-.16.23-.44.4-.65.23a.84.84,0,0,1-.13-.7,2.52,2.52,0,0,1,1.67-2A4.25,4.25,0,0,1,55.18,104.25Z"/><path class="cls-1" d="M44.82,102.5a10.12,10.12,0,0,0,1.24.17c1.06,0,2-.3,2.19-1.47s-.59-1.77-1.58-2.09a3.32,3.32,0,0,0-4.21,2.09c-.47,1.59.53,2.86,2.64,3.4a3.84,3.84,0,0,0,2,.11c1.32-.33,1.84-.78,2-1.74C46.62,104,46,104,44.82,102.5Zm.43-1.51a1.8,1.8,0,0,1,.67-.56.26.26,0,0,1,.31.36,1,1,0,0,1-.68.65C45.17,101.37,45.1,101.17,45.25,101Z"/><path class="cls-1" d="M99.32,39.37a.41.41,0,0,0,.6.27c.66-.23,1.31-.5,2.28-.88-.73,1.08-1.23,1.85-1.74,2.6a.54.54,0,0,0,0,.68c.16.27.32.3.61.18,1-.45,2.06-.85,3.1-1.26.21-.08.4-.16.33-.41a.44.44,0,0,0-.58-.33c-.68.14-1.25.68-2.16.62l1.55-2.29a.77.77,0,0,0,0-.87c-.16-.25-.36-.12-.53,0-1,.41-2.08.83-3.11,1.26C99.43,39,99.25,39.12,99.32,39.37Z"/><path class="cls-1" d="M90.25,24.57c.23-.13.32-.58.7-.36s.09.63,0,.95c-.12.54-.68,1.11.17,1.54.63-.35.22-1.51,1.12-1.58s1.41-.39,1.47-1.2a2.29,2.29,0,0,0-1.41-2c-.66-.37-1,.54-1.39.87a8.37,8.37,0,0,0-1.21,1.17c-.23.26-.85.45-.42.94S90,24.74,90.25,24.57Zm2-1.73c.45,0,.57.47.67.78,0,.52-.25.75-.68.69s-.85-.39-.83-.74A.86.86,0,0,1,92.23,22.84Z"/><path class="cls-1" d="M23.05,25.36a2.14,2.14,0,0,0,2.17-2.09,2.38,2.38,0,0,0-2.14-2.35,2.22,2.22,0,0,0-2.25,2.17A2.36,2.36,0,0,0,23.05,25.36Zm-.17-3.64c.93,0,1.41.71,1.65,1.56-.16.72-.51,1.3-1.28,1.31A1.57,1.57,0,0,1,21.59,23,1.19,1.19,0,0,1,22.88,21.72Z"/><path class="cls-1" d="M97.24,33.64a2.28,2.28,0,0,0,2.37-2.23,2.24,2.24,0,0,0-2.11-2.18,2.39,2.39,0,0,0-2.29,2.2A2.11,2.11,0,0,0,97.24,33.64Zm.22-3.54a1.18,1.18,0,0,1,1.42,1.23c0,1-.75,1.37-1.59,1.58a1.3,1.3,0,0,1-1.35-1.37A1.5,1.5,0,0,1,97.46,30.1Z"/><path class="cls-1" d="M9.41,45.05c-1.26,0-2.13.86-2.29,2.54-.11,1.23,1.06.68,1.6,1a3.2,3.2,0,0,0,.88.26c1.59.38,2.06,0,2-1.75A2.09,2.09,0,0,0,9.41,45.05Zm1.45,2.42c-.08.41-.12,1-1.12.43C9.39,47.62,8,48.35,8,47a1.15,1.15,0,0,1,1.49-1.1C10.36,46,11.08,46.41,10.86,47.47Z"/><path class="cls-1" d="M10,64.87c-.28,0-.67.19-.8-.18s.3-.57.57-.77a5,5,0,0,0,.72-.56.63.63,0,0,0,.06-.54c-.09-.26-.38-.19-.51-.07-.69.68-1.34.43-2.16.18s-1.5.44-1.44,1.32c0,.65-.26,1.67.54,1.83,1.29-.16,2.2-.25,3.11-.41.29,0,.84,0,.78-.49S10.36,64.91,10,64.87Zm-2.17.32c-.6.07-.69-.32-.69-.74s.18-.84.73-.76a.71.71,0,0,1,.62.69C8.59,65.09,8.26,65.14,7.87,65.19Z"/><path class="cls-1" d="M18,32.42c.51-.54-.19-.74-.5-1s-.46-.29-.34-.59.47-.25.78-.2c.56.09,1.2.45,1.56-.31-.31-.84-1.58.07-1.77-1.06a1.21,1.21,0,0,0-1.46-1c-1,.11-1.3,1-1.67,1.64s.55.79.89,1.12A8.24,8.24,0,0,0,17,32C17.31,32.22,17.63,32.8,18,32.42Zm-1-2.7a1.22,1.22,0,0,1-.63.91c-.34-.3-.9-.36-.83-.84a.83.83,0,0,1,.91-.82A.6.6,0,0,1,17,29.72Z"/><path class="cls-1" d="M76.43,16a1.55,1.55,0,0,0,2.23-.41c-.41-.44-.8-.2-1.18-.18-1.07.05-1.5-.49-1.3-1.53a1.39,1.39,0,0,1,1.12-1.28,1.1,1.1,0,0,1,1.36.91.56.56,0,0,0,.66.47c.31-.06.27-.39.21-.63a2.05,2.05,0,0,0-2-1.58,2.14,2.14,0,0,0-2.16,1.82A1.92,1.92,0,0,0,76.43,16Z"/><path class="cls-1" d="M106.2,63.14c-.73-.17-1.09.33-1.42.89s-.42,1.29-1.15.77c-.55-.4-.18-.88.35-1.16a.47.47,0,0,0,.15-.76c-.27-.31-.56,0-.77.16a1.72,1.72,0,0,0-.65,1.77,1.18,1.18,0,0,0,1,1c.83.13,1.18-.4,1.53-1,.21-.36.41-1.08.92-.76s.22.85-.27,1.19a.45.45,0,0,0,0,.68c.22.25.46,0,.65-.12.5-.28.57-.81.69-1.31C107.13,63.86,106.89,63.29,106.2,63.14Z"/><path class="cls-1" d="M103.28,54.6a1.93,1.93,0,0,0,1.19,2.72c.23-.47-.09-.72-.34-1a1.09,1.09,0,0,1,.11-1.63,1.63,1.63,0,0,1,2.11,0,1.08,1.08,0,0,1,.14,1.62c-.23.33-.69.65-.13.93.41.22.71-.24.92-.59a2.05,2.05,0,0,0-.81-2.88A2.45,2.45,0,0,0,103.28,54.6Z"/><path class="cls-1" d="M54,11.42a1.78,1.78,0,0,0-1.44-.29c-.42,0-.84.11-.9-.51s.42-.56.79-.68.85.17,1-.42c-.44-.78-1.73.43-1.8-.66s1.4-.31,1.93-1.28c-1.11-.21-2.51-.3-2.78.44a4.66,4.66,0,0,0,.45,3.8C51.57,12.36,53,11.85,54,11.42Z"/><path class="cls-1" d="M30.09,17.81c.47-.06,1.11-.49,1.22.31s-.55.68-1.08.61c-.3,0-.68-.08-.69.34s.4.46.67.51a1.79,1.79,0,0,0,1.73-.74,1.14,1.14,0,0,0,.19-1.29c-.32-.68-.91-.73-1.56-.64L30,17c-.35.09-.79.2-.81-.33s.34-.72.84-.53.63,0,.67-.33-.35-.42-.63-.45a1.57,1.57,0,0,0-1.57.75,1,1,0,0,0,0,1.27C28.86,18,29.49,17.9,30.09,17.81Z"/><path class="cls-1" d="M10.29,57a3.91,3.91,0,0,0-.14-2.65c-.87.49.34,1.91-1,1.92s-.05-1.45-.86-1.8c-.9.3.36,1.93-1,1.73-1.18-.17,0-1.46-.94-2.12-.2,1.11-.55,2.06.12,2.94A10.85,10.85,0,0,0,10.29,57Z"/><path class="cls-1" d="M69.23,13.29c.2,0,.41.12.5-.14a.35.35,0,0,0-.23-.48c-.54-.19-1.52,0-1.38-.86.21-1.33,1.26,0,1.82-.4a.63.63,0,0,0,.1-.12c0-.72-.68-.44-1-.61s-.57-.41-.43-.83.45-.34.75-.28a6.77,6.77,0,0,1,.74.2c.24.06.52.17.61-.18s-.25-.38-.46-.48c-1.86-.86-2.12-.74-2.62,1.28,0,.2-.11.4-.16.59C66.94,12.83,67.26,13.25,69.23,13.29Z"/><path class="cls-1" d="M37.51,13.62c.52,0,1.35-.22,1.23.63s-.8.5-1.34.26a.57.57,0,0,0-.51.19c-.13.17,0,.38.18.51a1.69,1.69,0,0,0,1.87,0,1.22,1.22,0,0,0,.69-1.4c-.12-.66-.57-.86-1.21-.93s-1.53.4-1.53-.44c0-1.09,1.11-.07,1.59-.48,0,0,0-.07.13-.2a1.19,1.19,0,0,0-1.76-.45c-.58.3-1.05.72-.89,1.43S36.8,13.64,37.51,13.62Z"/><path class="cls-1" d="M14.12,36.9c-.4.08-.39.42-.25.72a1.09,1.09,0,0,1-.73,1.68,1.58,1.58,0,0,1-1.92-.91c-.41-.82,0-1.33.84-1.6.24-.08.44-.27.46-.73-1.1-.34-1.68.31-2,1.15a1.89,1.89,0,0,0,.71,2.44,2.17,2.17,0,0,0,2.7.13,2.1,2.1,0,0,0,.79-2.32C14.63,37.19,14.5,36.82,14.12,36.9Z"/><path class="cls-1" d="M83.89,20.21c.69.48.86-.81,1.37-1.2s.58-1.89,1.84-.91a.45.45,0,0,0,.39-.09c.17-.18.07-.37-.12-.5L85,15.89l-.41.18c1.15,1,.5,1.69,0,2.5C84.25,19.08,83.23,19.76,83.89,20.21Z"/><path class="cls-1" d="M59.81,11.7c.64.06,1.29.08,1.94.11l.42-.44c-2.85.06-1.94-1.7-1.94-3a3.11,3.11,0,0,0,0-.61c-.1-.44-.38-.41-.66-.18a14.06,14.06,0,0,0-.28,3.93A.87.87,0,0,0,59.81,11.7Z"/><path class="cls-1" d="M102.06,48c0,.37.34.35.57.3,1.1-.22,2.2-.45,3.29-.7.26-.06.47-.24.36-.56a.44.44,0,0,0-.51-.27l-3.25.71C102.27,47.52,102,47.66,102.06,48Z"/><path class="cls-3" d="M54.4,103.78a.84.84,0,0,0,.13.7c.21.17.49,0,.65-.23a4.25,4.25,0,0,0,.89-2.46A2.52,2.52,0,0,0,54.4,103.78Z"/><path class="cls-3" d="M45.55,101.44a1,1,0,0,0,.68-.65.26.26,0,0,0-.31-.36,1.8,1.8,0,0,0-.67.56C45.1,101.17,45.17,101.37,45.55,101.44Z"/></g></g></svg>