<svg xmlns="http://www.w3.org/2000/svg" viewBox="0 0 172.46 311.81"><defs><style>.cls-1,.cls-9{font-size:10px;}.cls-1,.cls-10,.cls-2,.cls-3,.cls-4,.cls-5,.cls-7,.cls-9{fill:#fff;}.cls-1,.cls-3,.cls-4,.cls-9{font-family:TheBambankScript, The Bambank Script;}.cls-2{font-size:6.61px;}.cls-2,.cls-4,.cls-6{stroke:#fff;}.cls-10,.cls-2,.cls-4,.cls-5,.cls-6,.cls-8,.cls-9{stroke-miterlimit:10;}.cls-10,.cls-2,.cls-4,.cls-5,.cls-8,.cls-9{stroke-width:0.25px;}.cls-10,.cls-2{font-family:ComicSansMS-BoldItalic, Comic Sans MS;font-weight:700;font-style:italic;}.cls-3{font-size:11px;}.cls-4{font-size:15.83px;}.cls-10,.cls-5,.cls-8,.cls-9{stroke:#231f20;}.cls-6{fill:#231f20;stroke-width:2px;}.cls-8{fill:none;}.cls-10{font-size:6px;}</style></defs><title>Fichier 20</title><g id="Calque_2" data-name="Calque 2"><g id="Calque_1-2" data-name="Calque 1"><polygon points="170.08 292.89 170.08 282.45 140.72 311.81 151.16 311.81 170.08 292.89"/><polygon points="133.16 311.81 170.08 274.89 170.08 264.45 122.72 311.81 133.16 311.81"/><polygon points="0 61.12 0 311.81 115.16 311.81 170.08 256.89 170.08 0 61.12 0 0 61.12"/><text class="cls-1" transform="translate(33.06 45.94) rotate(-7.33)">V</text><text class="cls-1" transform="translate(47.01 44.9) rotate(13.54)">o</text><text class="cls-1" transform="matrix(0.92, 0.39, -0.39, 0.92, 51.66, 46.06)">l</text><text class="cls-2" transform="translate(21.18 77.6) scale(1.46 1)">1</text><text class="cls-2" transform="translate(60.19 78.03) scale(1.46 1)">11</text><text class="cls-3" transform="translate(112.85 46.79) rotate(-18.43)">G</text><text class="cls-3" transform="translate(122.91 43.69) rotate(0.93)">a</text><text class="cls-3" transform="translate(129.25 43.87) rotate(11.48)">i</text><text class="cls-3" transform="matrix(0.92, 0.39, -0.39, 0.92, 132.61, 44.34)">n</text><text class="cls-2" transform="translate(104.73 78.03) scale(1.46 1)">1</text><text class="cls-2" transform="translate(138.87 78.95) scale(1.46 1)">11</text><text class="cls-4" transform="translate(25.49 212.13)">The Uncolour</text><path class="cls-5" d="M29.76,118.61a12,12,0,0,1,1.46-1.86,10,10,0,0,1,1.36-1.23l.75-.49a4.34,4.34,0,0,1,1.21-.48,1.57,1.57,0,0,1,1.31.2,1.28,1.28,0,0,0,0-.81l-.17-.39a1.59,1.59,0,0,0-.49-.51,1,1,0,0,0-.86-.08,6.43,6.43,0,0,0-.88.43,11.67,11.67,0,0,0-1.22.81,19.75,19.75,0,0,0-2.34,2.07,22.62,22.62,0,0,0-2.13,2.49,12.91,12.91,0,0,0-1.48,2.51,3.88,3.88,0,0,0-.37,2.11,2.24,2.24,0,0,0,.24.69,1.5,1.5,0,0,0,.42.48,1.39,1.39,0,0,0,1.13.3,3.16,3.16,0,0,0,1.12-.38,5.82,5.82,0,0,0,.79-.56,2.41,2.41,0,0,1-1-1.44,3.93,3.93,0,0,1,.14-1.87A8.1,8.1,0,0,1,29.76,118.61Z"/><path class="cls-5" d="M35,123.66a7.18,7.18,0,0,1-1.1-1.4l-.28-.47c-.26-.46-.53-1-.8-1.6a15,15,0,0,1-.7-1.87,3,3,0,0,0-.22-.57,1,1,0,0,0-.29-.31.53.53,0,0,0-.48,0,3.52,3.52,0,0,0-.4.18l-.18.12c.06.61.17,1.32.33,2.14a22.46,22.46,0,0,0,.63,2.44,13.12,13.12,0,0,0,.9,2.19l.09.17a3.67,3.67,0,0,0,1.08,1.23,1.23,1.23,0,0,0,1.34,0h0a2.91,2.91,0,0,0,.42-.32,2.07,2.07,0,0,0,.46-.6,1.38,1.38,0,0,0,.15-.86A1.12,1.12,0,0,1,35,123.66Z"/><path class="cls-5" d="M58.62,124.9a3,3,0,0,1-.91-.39l-.15-.1-.17-.15-.13-.14a1.78,1.78,0,0,0,1,0,1.55,1.55,0,0,0,.71-.35,2.36,2.36,0,0,0,.23-.27.84.84,0,0,0,.1-.7,2,2,0,0,0-.79-1.07l-.18-.1a2.39,2.39,0,0,0-1.52-.22,2.54,2.54,0,0,0-1.44.8l-.12.16a1,1,0,0,0,0-.25.9.9,0,0,1-.46.19,1.89,1.89,0,0,1-.67,0,1.26,1.26,0,0,1-.25-.07,1,1,0,0,1-.31-.24c-.09-.12-.08-.32,0-.61a10.49,10.49,0,0,1,.9-1.62c.38-.59.66-1,.84-1.24a2.48,2.48,0,0,0,.19-.34.82.82,0,0,0,.06-.53.67.67,0,0,0-.34-.43,2.73,2.73,0,0,0-.4-.23l-.14-.05c-.38.37-.78.81-1.2,1.31a16.4,16.4,0,0,0-1.17,1.57,9.45,9.45,0,0,0-.53.89.94.94,0,0,0,0-.29.61.61,0,0,1-.29.19,2.54,2.54,0,0,1-.45.13.91.91,0,0,1-.33,0h0a3.63,3.63,0,0,0,.26-.79,2.53,2.53,0,0,0,0-.83,1.35,1.35,0,0,0-.41-.78,1.59,1.59,0,0,0-.74-.42h0a2.08,2.08,0,0,0-1.23.2,4.61,4.61,0,0,0-1.32,1,18.14,18.14,0,0,1,1-2.79c0-.13.09-.26.12-.37a.86.86,0,0,0,0-.53.76.76,0,0,0-.42-.36,4.14,4.14,0,0,0-.43-.13l-.16,0c-.29.44-.6.95-.91,1.53a15.81,15.81,0,0,0-.82,1.77,8.83,8.83,0,0,0-.44,1.39c0-.06,0-.12,0-.16a.56.56,0,0,0-.07-.28,1.84,1.84,0,0,1-.73.53,3,3,0,0,1-1,.2h-.18l-.22,0-.19,0a1.72,1.72,0,0,0,.79-.56,1.59,1.59,0,0,0,.39-.69,2,2,0,0,0,0-.35.83.83,0,0,0-.32-.64,1.94,1.94,0,0,0-1.25-.43l-.21,0a2.37,2.37,0,0,0-1.37.69,2.51,2.51,0,0,0-.71,1.4s-.06.09-.12.13a2.09,2.09,0,0,1-.29.16l-.21.07c-.16,0-.3,0-.43-.26a1.27,1.27,0,0,1-.11-.3,3.12,3.12,0,0,1-.07-.81s0-.06,0-.09a.59.59,0,0,0-.32-.39,1.24,1.24,0,0,0-.64-.12,2.15,2.15,0,0,0-.5.07l-.28.08a3.83,3.83,0,0,0-.33.41,4.75,4.75,0,0,0-.51.84l0-.11a.82.82,0,0,0-.35-.56,1,1,0,0,0-.64-.13,6.7,6.7,0,0,0-.68.13l-.14,0a14.38,14.38,0,0,0,.07,1.75,7.21,7.21,0,0,0,.16,1c0,.18.11.41.21.71a1.73,1.73,0,0,0,.54.78,1.06,1.06,0,0,0,1,.19,2.45,2.45,0,0,0,.5-.2,1.08,1.08,0,0,0,.44-.35,1.37,1.37,0,0,1-.32-.45,1.66,1.66,0,0,1-.06-.21,5.18,5.18,0,0,1-.11-1.22,4.18,4.18,0,0,1,.25-1.39,1.93,1.93,0,0,0,.06.36,2.62,2.62,0,0,0,.46,1,1.14,1.14,0,0,0,1,.41,2.7,2.7,0,0,0,.44-.07,1.76,1.76,0,0,0,.75-.37,1.33,1.33,0,0,0,.28-.31,3.2,3.2,0,0,0,.09.54,2,2,0,0,0,.63.94,2.26,2.26,0,0,0,1.24.43h.19a3.25,3.25,0,0,0,1.54-.35,2.54,2.54,0,0,0,1-.86,4.83,4.83,0,0,0,.23-.44v0a2,2,0,0,0,.12,1,1.05,1.05,0,0,0,.85.68,2.11,2.11,0,0,0,.54,0,1.13,1.13,0,0,0,.54-.13,9.44,9.44,0,0,1,.83-1.78,2.63,2.63,0,0,1,.85-.95.53.53,0,0,1,.33-.06.45.45,0,0,1,.22.17.66.66,0,0,1,.05.49.83.83,0,0,1-.39.53,1.05,1.05,0,0,1-.79.08l-.15,0a1.05,1.05,0,0,0-.39.65,1.76,1.76,0,0,0,0,.21,1.18,1.18,0,0,0,.13.62,1.33,1.33,0,0,0,.66.64,1.38,1.38,0,0,0,.39.14l.13,0a3.19,3.19,0,0,0,1.8-.28,2.61,2.61,0,0,0,.69-.55h0a2,2,0,0,0-.09,1,1,1,0,0,0,.69.85,3.39,3.39,0,0,0,1.5.28,2.16,2.16,0,0,0,1.07-.36c.09-.07.16-.15.24-.22a1.84,1.84,0,0,0,0,1.09,2.18,2.18,0,0,0,.77,1l.16.11a3.39,3.39,0,0,0,1.47.59,2.46,2.46,0,0,0,1.27-.17,2,2,0,0,0,.75-.48,2.67,2.67,0,0,0,.27-.34.48.48,0,0,0,.11-.27A1.82,1.82,0,0,1,58.62,124.9Zm-16.3-5.75a.88.88,0,0,1,.19-.64.48.48,0,0,1,.32-.17h.1a.18.18,0,0,1,.13.17.35.35,0,0,1-.05.18c-.07.19-.3.36-.68.53Zm15,4.19a.86.86,0,0,1,.52-.42.49.49,0,0,1,.37,0l.07.07a.18.18,0,0,1,0,.21.92.92,0,0,1-.14.13,1.25,1.25,0,0,1-.87,0Z"/><circle class="cls-6" cx="44.34" cy="289.48" r="7.25"/><circle class="cls-6" cx="86.06" cy="266.27" r="19.84"/><path class="cls-5" d="M10.25,155.25a1.36,1.36,0,0,1-.53-.09c-.13-.07-.2-.15-.2-.26s.09-.24.27-.33a1.48,1.48,0,0,1,.65-.14l2.37,0a1.38,1.38,0,0,1,.54.09c.15.06.22.15.22.26a.36.36,0,0,1-.21.32,1.51,1.51,0,0,1-.73.16C12.29,155.24,11.5,155.25,10.25,155.25Z"/><path class="cls-5" d="M17.44,152.36c-.09.23-.18.46-.29.69a5.68,5.68,0,0,1,1.62-.21,2.32,2.32,0,0,1,1.49.4,1.32,1.32,0,0,1,.5,1.06,2.25,2.25,0,0,1-1.06,1.84,4.43,4.43,0,0,1-2.66.77,3.05,3.05,0,0,1-1.62-.34c-.35-.23-.53-.43-.53-.59s.08-.25.25-.36a1,1,0,0,1,.56-.15.76.76,0,0,1,.29.05,2.17,2.17,0,0,1,.39.28,1.3,1.3,0,0,0,.87.22,2.44,2.44,0,0,0,1.49-.46,1.4,1.4,0,0,0,.63-1.17c0-.44-.27-.67-.8-.67a2.87,2.87,0,0,0-.67.07,2.24,2.24,0,0,0-.55.17,6.93,6.93,0,0,0-.79.47,1.19,1.19,0,0,1-.61.18.75.75,0,0,1-.42-.11.33.33,0,0,1-.17-.26,1.24,1.24,0,0,1,.08-.27,12.6,12.6,0,0,0,.62-1.78,1.5,1.5,0,0,0,0-.18.88.88,0,0,1,0-.19q0-.16.24-.27a1.61,1.61,0,0,1,.57-.1l.59,0h2.8l.4,0c.35,0,.53.12.53.35a.43.43,0,0,1-.27.37,1.66,1.66,0,0,1-.62.17c-.23,0-.67,0-1.29,0Z"/><path class="cls-5" d="M25.44,153.26c.25-.84.43-1.39.54-1.64a.72.72,0,0,1,.74-.37c.38,0,.56.12.56.37a10.2,10.2,0,0,1-.46,1.55,14.63,14.63,0,0,0-.56,2,6.86,6.86,0,0,0-.16,1.09.83.83,0,0,1,0,.26.53.53,0,0,1-.26.21.94.94,0,0,1-.47.12.52.52,0,0,1-.5-.23,4.19,4.19,0,0,1-1.53.28,2.78,2.78,0,0,1-1.64-.42,1.21,1.21,0,0,1-.6-1,2.13,2.13,0,0,1,.9-1.64,3.6,3.6,0,0,1,2.36-.74A2.27,2.27,0,0,1,25.44,153.26Zm-.34,1.08a1,1,0,0,0-1-.43,1.81,1.81,0,0,0-1.35.43,1.27,1.27,0,0,0-.42.88.65.65,0,0,0,.33.54,1.48,1.48,0,0,0,.81.21,2.59,2.59,0,0,0,1.3-.38A10.55,10.55,0,0,1,25.1,154.34Z"/><path class="cls-5" d="M32,154.08a1.9,1.9,0,0,1,.74.48.9.9,0,0,1,.27.6c0,.5-.45.91-1.34,1.23a11.79,11.79,0,0,1-3.71.46.75.75,0,0,1-.5-.16.37.37,0,0,1-.16-.37l.84-3.62a2.47,2.47,0,0,0,0-.32,1.41,1.41,0,0,1,.25-.72,1.49,1.49,0,0,1,.77-.25,9.54,9.54,0,0,1,1.39-.09,3.47,3.47,0,0,1,1.71.42c.51.27.76.6.76,1C33.1,153.28,32.75,153.73,32,154.08Zm-3,.56-.3,1.29a15.32,15.32,0,0,0,2.11-.21c.51-.1.77-.25.77-.45s-.16-.32-.49-.43a2.33,2.33,0,0,0-.74-.18C30.14,154.66,29.69,154.66,29.08,154.64Zm1.33-2.39h-.78l-.16.73-.17.71.55,0a3.39,3.39,0,0,0,1.32-.23c.35-.16.52-.36.52-.61s-.13-.3-.39-.44A2,2,0,0,0,30.41,152.25Z"/><path class="cls-5" d="M56.72,154.9l-.14.6a.47.47,0,0,1-.24.28,1,1,0,0,1-.51.13.76.76,0,0,1-.4-.1.3.3,0,0,1-.15-.24,5.66,5.66,0,0,1,.13-.66h-.65a1.93,1.93,0,0,1-.64-.09c-.16-.07-.25-.16-.25-.27a.36.36,0,0,1,.24-.34,2.29,2.29,0,0,1,.83-.1l.66,0c0-.06,0-.14,0-.22a.78.78,0,0,1,.84-.76.73.73,0,0,1,.41.1.27.27,0,0,1,.17.23.45.45,0,0,1,0,.13,1.57,1.57,0,0,0-.09.27l-.06.24H57l.69,0c.62,0,.93.12.93.35a.4.4,0,0,1-.21.33.91.91,0,0,1-.52.15l-.35,0h-.8Z"/><path class="cls-5" d="M62,152.36c-.09.23-.18.46-.29.69a5.68,5.68,0,0,1,1.62-.21,2.32,2.32,0,0,1,1.49.4,1.32,1.32,0,0,1,.5,1.06,2.25,2.25,0,0,1-1.06,1.84,4.43,4.43,0,0,1-2.66.77,3.05,3.05,0,0,1-1.62-.34c-.35-.23-.53-.43-.53-.59a.41.41,0,0,1,.25-.35,1,1,0,0,1,.56-.16.76.76,0,0,1,.29.05,1.86,1.86,0,0,1,.39.28,1.3,1.3,0,0,0,.87.22,2.44,2.44,0,0,0,1.49-.46,1.4,1.4,0,0,0,.63-1.17c0-.44-.27-.67-.8-.67a2.87,2.87,0,0,0-.67.07,2.24,2.24,0,0,0-.55.17,6.93,6.93,0,0,0-.79.47,1.16,1.16,0,0,1-.61.18.75.75,0,0,1-.42-.11.33.33,0,0,1-.17-.26A1.24,1.24,0,0,1,60,154a12.6,12.6,0,0,0,.62-1.78,1.5,1.5,0,0,0,0-.18c0-.1,0-.16,0-.19s.08-.2.24-.27a1.61,1.61,0,0,1,.57-.1l.59,0h2.8l.4,0c.35,0,.53.12.53.35a.43.43,0,0,1-.27.37,1.61,1.61,0,0,1-.62.17c-.23,0-.67,0-1.29,0Z"/><path class="cls-5" d="M70,153.26c.25-.84.43-1.39.54-1.64a.72.72,0,0,1,.74-.37c.38,0,.57.12.57.37a11,11,0,0,1-.47,1.55,14.63,14.63,0,0,0-.56,2,6.86,6.86,0,0,0-.16,1.09.83.83,0,0,1,0,.26.53.53,0,0,1-.26.21.94.94,0,0,1-.47.12.52.52,0,0,1-.5-.23,4.19,4.19,0,0,1-1.53.28,2.78,2.78,0,0,1-1.64-.42,1.21,1.21,0,0,1-.6-1,2.14,2.14,0,0,1,.9-1.64,3.6,3.6,0,0,1,2.36-.74A2.27,2.27,0,0,1,70,153.26Zm-.34,1.08a1,1,0,0,0-1-.43,1.81,1.81,0,0,0-1.35.43,1.27,1.27,0,0,0-.42.88.65.65,0,0,0,.33.54A1.48,1.48,0,0,0,68,156a2.59,2.59,0,0,0,1.3-.38A10.55,10.55,0,0,1,69.63,154.34Z"/><path class="cls-5" d="M76.56,154.08a1.9,1.9,0,0,1,.74.48.9.9,0,0,1,.27.6c0,.51-.45.91-1.34,1.23a11.74,11.74,0,0,1-3.71.47.76.76,0,0,1-.5-.17.37.37,0,0,1-.16-.37l.84-3.62a2.48,2.48,0,0,0,0-.31.88.88,0,0,1,1-1,9.65,9.65,0,0,1,1.39-.08,3.43,3.43,0,0,1,1.71.41c.51.27.76.6.76,1C77.63,153.28,77.28,153.73,76.56,154.08Zm-3,.56-.3,1.29a15.32,15.32,0,0,0,2.11-.21c.52-.1.77-.25.77-.45s-.16-.32-.49-.43a2.33,2.33,0,0,0-.74-.18C74.67,154.66,74.22,154.66,73.61,154.64Zm1.33-2.39h-.78L74,153l-.17.71.55,0a3.39,3.39,0,0,0,1.32-.23c.35-.16.52-.36.52-.61s-.13-.3-.39-.44A2,2,0,0,0,74.94,152.25Z"/><path class="cls-7" d="M62.33,148.22h0a1.47,1.47,0,0,1-.82-1.9,22.43,22.43,0,0,0-2.3-17.91,1.52,1.52,0,0,1,.31-2h0a1.34,1.34,0,0,1,1.95.49,25.17,25.17,0,0,1,2.7,20A1.67,1.67,0,0,1,62.33,148.22Z"/><path class="cls-8" d="M62.33,148.22h0a1.47,1.47,0,0,1-.82-1.9,22.43,22.43,0,0,0-2.3-17.91,1.52,1.52,0,0,1,.31-2h0a1.34,1.34,0,0,1,1.95.49,25.17,25.17,0,0,1,2.7,20A1.67,1.67,0,0,1,62.33,148.22Z"/><path class="cls-7" d="M28.15,147.91h0a1.48,1.48,0,0,1-1.87-1,24.67,24.67,0,0,1,1-19.5,1.38,1.38,0,0,1,1.91-.71h0a1.5,1.5,0,0,1,.49,1.94A22,22,0,0,0,28.82,146,1.49,1.49,0,0,1,28.15,147.91Z"/><path class="cls-8" d="M28.15,147.91h0a1.48,1.48,0,0,1-1.87-1,24.67,24.67,0,0,1,1-19.5,1.38,1.38,0,0,1,1.91-.71h0a1.5,1.5,0,0,1,.49,1.94A22,22,0,0,0,28.82,146,1.49,1.49,0,0,1,28.15,147.91Z"/><text class="cls-9" transform="translate(115.65 126.59) rotate(-18.87)">B</text><text class="cls-9" transform="matrix(1, 0.06, -0.06, 1, 127.75, 123.07)">a</text><text class="cls-9" transform="translate(133.42 123.24) rotate(20.02)">ss</text><text class="cls-10" transform="translate(100.06 154.76) scale(1.46 1)">-5dB</text><text class="cls-10" transform="translate(135.88 154.76) scale(1.46 1)">+5dB</text><line x1="131.23" y1="161.46" x2="131.3" y2="155.1"/><path class="cls-7" d="M132.48,161.46l.07-6.36a1.25,1.25,0,0,0-2.5,0l-.07,6.36a1.25,1.25,0,0,0,2.5,0Z"/><path class="cls-7" d="M146.2,147.51h0a1.47,1.47,0,0,1-.82-1.9,22.4,22.4,0,0,0-2.3-17.9,1.53,1.53,0,0,1,.31-2h0a1.34,1.34,0,0,1,2,.49,25.17,25.17,0,0,1,2.7,20A1.66,1.66,0,0,1,146.2,147.51Z"/><path class="cls-8" d="M146.2,147.51h0a1.47,1.47,0,0,1-.82-1.9,22.4,22.4,0,0,0-2.3-17.9,1.53,1.53,0,0,1,.31-2h0a1.34,1.34,0,0,1,2,.49,25.17,25.17,0,0,1,2.7,20A1.66,1.66,0,0,1,146.2,147.51Z"/><path class="cls-7" d="M112.19,148.23h0a1.48,1.48,0,0,1-1.87-1,24.66,24.66,0,0,1,1-19.5,1.36,1.36,0,0,1,1.9-.71h0a1.48,1.48,0,0,1,.5,1.93,22,22,0,0,0-.85,17.38A1.49,1.49,0,0,1,112.19,148.23Z"/><path class="cls-8" d="M112.19,148.23h0a1.48,1.48,0,0,1-1.87-1,24.66,24.66,0,0,1,1-19.5,1.36,1.36,0,0,1,1.9-.71h0a1.48,1.48,0,0,1,.5,1.93,22,22,0,0,0-.85,17.38A1.49,1.49,0,0,1,112.19,148.23Z"/><path class="cls-7" d="M143.12,70.63h0a1.46,1.46,0,0,1-.81-1.89A22.5,22.5,0,0,0,140,50.83a1.52,1.52,0,0,1,.31-2h0a1.34,1.34,0,0,1,2,.49,25.17,25.17,0,0,1,2.7,20A1.66,1.66,0,0,1,143.12,70.63Z"/><path class="cls-8" d="M143.12,70.63h0a1.46,1.46,0,0,1-.81-1.89A22.5,22.5,0,0,0,140,50.83a1.52,1.52,0,0,1,.31-2h0a1.34,1.34,0,0,1,2,.49,25.17,25.17,0,0,1,2.7,20A1.66,1.66,0,0,1,143.12,70.63Z"/><path class="cls-7" d="M109,70.33h0a1.48,1.48,0,0,1-1.87-1,24.67,24.67,0,0,1,1-19.5A1.37,1.37,0,0,1,110,49.1h0a1.49,1.49,0,0,1,.49,1.93,22,22,0,0,0-.85,17.39A1.49,1.49,0,0,1,109,70.33Z"/><path class="cls-8" d="M109,70.33h0a1.48,1.48,0,0,1-1.87-1,24.67,24.67,0,0,1,1-19.5A1.37,1.37,0,0,1,110,49.1h0a1.49,1.49,0,0,1,.49,1.93,22,22,0,0,0-.85,17.39A1.49,1.49,0,0,1,109,70.33Z"/><path class="cls-7" d="M62.6,71.66h0a1.47,1.47,0,0,1-.81-1.9,22.48,22.48,0,0,0-2.3-17.9,1.53,1.53,0,0,1,.31-2h0a1.33,1.33,0,0,1,1.94.49,25.17,25.17,0,0,1,2.71,20A1.67,1.67,0,0,1,62.6,71.66Z"/><path class="cls-8" d="M62.6,71.66h0a1.47,1.47,0,0,1-.81-1.9,22.48,22.48,0,0,0-2.3-17.9,1.53,1.53,0,0,1,.31-2h0a1.33,1.33,0,0,1,1.94.49,25.17,25.17,0,0,1,2.71,20A1.67,1.67,0,0,1,62.6,71.66Z"/><path class="cls-7" d="M28.43,71.35h0a1.48,1.48,0,0,1-1.87-1,24.71,24.71,0,0,1,1-19.5,1.39,1.39,0,0,1,1.91-.71h0a1.5,1.5,0,0,1,.5,1.94,22,22,0,0,0-.85,17.38A1.49,1.49,0,0,1,28.43,71.35Z"/><path class="cls-8" d="M28.43,71.35h0a1.48,1.48,0,0,1-1.87-1,24.71,24.71,0,0,1,1-19.5,1.39,1.39,0,0,1,1.91-.71h0a1.5,1.5,0,0,1,.5,1.94,22,22,0,0,0-.85,17.38A1.49,1.49,0,0,1,28.43,71.35Z"/><polygon points="16.12 0 0 16.12 0 29.19 29.19 0 16.12 0"/><polygon points="38.62 0 0 38.62 0 51.7 51.7 0 38.62 0"/><polygon points="170.08 311.81 170.08 300.45 158.72 311.81 170.08 311.81"/><polygon points="0 0 0 6.69 6.69 0 0 0"/><line class="cls-7" x1="172.46" y1="254.51" x2="170.08" y2="256.89"/></g></g></svg>